<svg width="180" height="66" viewBox="0 0 180 66" fill="none" xmlns="http://www.w3.org/2000/svg">
<path d="M0.955164 0.581998H15.6442C21.1572 0.581998 24.4502 3.394 24.4502 7.612C24.4502 10.239 22.9332 11.867 21.0092 12.866V13.014C23.3032 14.05 25.3012 15.937 25.3012 19.008C25.3012 24.114 21.9342 27 16.2732 27H0.955164V0.581998ZM9.09516 11.053H13.7202C15.4962 11.053 16.4212 10.128 16.4212 8.722C16.4212 7.316 15.4962 6.391 13.7202 6.391H9.09516V11.053ZM9.09516 21.043H14.2012C16.0512 21.043 17.0132 20.081 17.0132 18.601C17.0132 17.121 16.0512 16.159 14.2012 16.159H9.09516V21.043ZM44.1191 22.042H35.0911L33.6481 27H25.1381L34.1661 0.581998H45.2661L54.2941 27H45.6361L44.1191 22.042ZM42.4541 16.492L39.6421 7.131H39.4941L36.7191 16.492H42.4541ZM77.0387 8.278L69.3057 8.759C69.1577 6.946 67.9737 5.725 65.4207 5.725C63.4967 5.725 62.2387 6.576 62.2387 7.686C62.2387 8.796 63.3857 9.203 65.0137 9.61L69.0467 10.646C73.2277 11.719 77.9637 12.866 77.9637 19.267C77.9637 25.261 72.4507 27.592 66.0867 27.592C59.5747 27.592 54.0247 24.595 53.5807 18.749L61.6097 17.935C61.7577 20.488 63.6447 21.709 66.1607 21.709C68.0847 21.709 69.6757 21.006 69.6757 19.6C69.6757 18.231 68.6027 17.787 66.1237 17.121L62.7197 16.196C58.7607 15.123 54.3207 13.976 54.3207 8.278C54.3207 2.617 59.3157 -0.0100007 65.7907 -0.0100007C71.7477 -0.0100007 76.3357 2.802 77.0387 8.278ZM97.4529 16.529L105.704 17.158C104.742 23.226 99.8209 27.592 92.6799 27.592C84.7989 27.592 79.1379 22.708 79.1379 13.791C79.1379 4.874 84.7989 -0.0100007 92.6799 -0.0100007C99.6729 -0.0100007 104.446 4.282 105.556 9.314L97.3789 10.165C96.7869 7.982 95.1219 6.354 92.6799 6.354C90.3119 6.354 87.4259 7.871 87.4259 13.791C87.4259 19.711 90.3119 21.228 92.6799 21.228C95.1219 21.228 96.9349 19.6 97.4529 16.529ZM117.216 16.788L115.181 19.082V27H107.041V0.581998H115.181V9.684L122.692 0.581998H131.794L122.766 10.72L132.978 27H123.395L117.216 16.788ZM141.812 10.609H153.726V16.455H141.812V20.71H154.466V27H133.635V0.581998H154.466V6.687H141.812V10.609ZM179.641 7.242H171.649V27H163.509V7.242H155.517V0.581998H179.641V7.242ZM41.4058 39.582H56.0948C61.6078 39.582 64.9008 42.394 64.9008 46.612C64.9008 49.239 63.3838 50.867 61.4598 51.866V52.014C63.7538 53.05 65.7518 54.937 65.7518 58.008C65.7518 63.114 62.3848 66 56.7238 66H41.4058V39.582ZM49.5458 50.053H54.1708C55.9468 50.053 56.8718 49.128 56.8718 47.722C56.8718 46.316 55.9468 45.391 54.1708 45.391H49.5458V50.053ZM49.5458 60.043H54.6518C56.5018 60.043 57.4638 59.081 57.4638 57.601C57.4638 56.121 56.5018 55.159 54.6518 55.159H49.5458V60.043ZM84.5698 61.042H75.5418L74.0988 66H65.5888L74.6168 39.582H85.7168L94.7448 66H86.0868L84.5698 61.042ZM82.9048 55.492L80.0928 46.131H79.9448L77.1698 55.492H82.9048ZM95.5689 66V39.582H103.746V59.34H116.696V66H95.5689ZM118.044 66V39.582H126.221V59.34H139.171V66H118.044Z" fill="url(#paint0_linear_34_3917)"/>
<defs>
<linearGradient id="paint0_linear_34_3917" x1="90" y1="-7" x2="90" y2="71" gradientUnits="userSpaceOnUse">
<stop stop-color="#262626"/>
<stop offset="1" stop-color="#B8C2CE"/>
</linearGradient>
</defs>
</svg>
