<svg width="218" height="28" viewBox="0 0 218 28" fill="none" xmlns="http://www.w3.org/2000/svg">
<path d="M18.6594 16.529L26.9104 17.158C25.9484 23.226 21.0274 27.592 13.8864 27.592C6.00544 27.592 0.344441 22.708 0.344441 13.791C0.344441 4.874 6.00544 -0.0100007 13.8864 -0.0100007C20.8794 -0.0100007 25.6524 4.282 26.7624 9.314L18.5854 10.165C17.9934 7.982 16.3284 6.354 13.8864 6.354C11.5184 6.354 8.63244 7.871 8.63244 13.791C8.63244 19.711 11.5184 21.228 13.8864 21.228C16.3284 21.228 18.1414 19.6 18.6594 16.529ZM44.9624 22.042H35.9344L34.4914 27H25.9814L35.0094 0.581998H46.1094L55.1374 27H46.4794L44.9624 22.042ZM43.2974 16.492L40.4854 7.131H40.3374L37.5624 16.492H43.2974ZM71.7605 27L67.2835 18.638H64.1015V27H55.9615V0.581998H69.9845C76.4225 0.581998 80.3075 3.838 80.3075 9.61C80.3075 13.458 78.5685 16.196 75.5345 17.602L81.1955 27H71.7605ZM64.1015 12.533H68.5415C70.8725 12.533 72.0195 11.386 72.0195 9.61C72.0195 7.834 70.8725 6.687 68.5415 6.687H64.1015V12.533ZM111.522 8.278L103.789 8.759C103.641 6.946 102.457 5.725 99.9036 5.725C97.9796 5.725 96.7216 6.576 96.7216 7.686C96.7216 8.796 97.8686 9.203 99.4966 9.61L103.53 10.646C107.711 11.719 112.447 12.866 112.447 19.267C112.447 25.261 106.934 27.592 100.57 27.592C94.0576 27.592 88.5076 24.595 88.0636 18.749L96.0926 17.935C96.2406 20.488 98.1276 21.709 100.644 21.709C102.568 21.709 104.159 21.006 104.159 19.6C104.159 18.231 103.086 17.787 100.607 17.121L97.2026 16.196C93.2436 15.123 88.8036 13.976 88.8036 8.278C88.8036 2.617 93.7986 -0.0100007 100.274 -0.0100007C106.231 -0.0100007 110.819 2.802 111.522 8.278ZM113.991 0.581998H127.607C134.045 0.581998 137.893 3.875 137.893 9.721C137.893 15.567 134.045 18.86 127.607 18.86H122.131V27H113.991V0.581998ZM122.131 12.755H126.09C128.421 12.755 129.605 11.571 129.605 9.721C129.605 7.871 128.421 6.687 126.09 6.687H122.131V12.755ZM152.895 -0.0100007C160.776 -0.0100007 166.696 4.837 166.696 13.791C166.696 22.745 160.776 27.592 152.895 27.592C145.014 27.592 139.094 22.745 139.094 13.791C139.094 4.837 145.014 -0.0100007 152.895 -0.0100007ZM152.895 21.228C155.596 21.228 158.408 19.711 158.408 13.791C158.408 7.871 155.596 6.354 152.895 6.354C150.194 6.354 147.382 7.871 147.382 13.791C147.382 19.711 150.194 21.228 152.895 21.228ZM184.061 27L179.584 18.638H176.402V27H168.262V0.581998H182.285C188.723 0.581998 192.608 3.838 192.608 9.61C192.608 13.458 190.869 16.196 187.835 17.602L193.496 27H184.061ZM176.402 12.533H180.842C183.173 12.533 184.32 11.386 184.32 9.61C184.32 7.834 183.173 6.687 180.842 6.687H176.402V12.533ZM217.882 7.242H209.89V27H201.75V7.242H193.758V0.581998H217.882V7.242Z" fill="url(#paint0_linear_34_3918)"/>
<defs>
<linearGradient id="paint0_linear_34_3918" x1="109" y1="-7" x2="109" y2="32" gradientUnits="userSpaceOnUse">
<stop stop-color="#262626"/>
<stop offset="1" stop-color="#B8C2CE"/>
</linearGradient>
</defs>
</svg>
