<svg width="203" height="28" viewBox="0 0 203 28" fill="none" xmlns="http://www.w3.org/2000/svg">
<path d="M9.16 6.687V11.534H21.074V17.38H9.16V27H0.982996V0.581998H21.814V6.687H9.16ZM36.3466 -0.0100007C44.2276 -0.0100007 50.1476 4.837 50.1476 13.791C50.1476 22.745 44.2276 27.592 36.3466 27.592C28.4656 27.592 22.5456 22.745 22.5456 13.791C22.5456 4.837 28.4656 -0.0100007 36.3466 -0.0100007ZM36.3466 21.228C39.0476 21.228 41.8596 19.711 41.8596 13.791C41.8596 7.871 39.0476 6.354 36.3466 6.354C33.6456 6.354 30.8336 7.871 30.8336 13.791C30.8336 19.711 33.6456 21.228 36.3466 21.228ZM65.1445 -0.0100007C73.0255 -0.0100007 78.9455 4.837 78.9455 13.791C78.9455 22.745 73.0255 27.592 65.1445 27.592C57.2635 27.592 51.3435 22.745 51.3435 13.791C51.3435 4.837 57.2635 -0.0100007 65.1445 -0.0100007ZM65.1445 21.228C67.8455 21.228 70.6575 19.711 70.6575 13.791C70.6575 7.871 67.8455 6.354 65.1445 6.354C62.4435 6.354 59.6315 7.871 59.6315 13.791C59.6315 19.711 62.4435 21.228 65.1445 21.228ZM103.501 7.242H95.5093V27H87.3693V7.242H79.3773V0.581998H103.501V7.242ZM104.829 0.581998H119.518C125.031 0.581998 128.324 3.394 128.324 7.612C128.324 10.239 126.807 11.867 124.883 12.866V13.014C127.177 14.05 129.175 15.937 129.175 19.008C129.175 24.114 125.808 27 120.147 27H104.829V0.581998ZM112.969 11.053H117.594C119.37 11.053 120.295 10.128 120.295 8.722C120.295 7.316 119.37 6.391 117.594 6.391H112.969V11.053ZM112.969 21.043H118.075C119.925 21.043 120.887 20.081 120.887 18.601C120.887 17.121 119.925 16.159 118.075 16.159H112.969V21.043ZM147.993 22.042H138.965L137.522 27H129.012L138.04 0.581998H149.14L158.168 27H149.51L147.993 22.042ZM146.328 16.492L143.516 7.131H143.368L140.593 16.492H146.328ZM158.992 27V0.581998H167.169V20.34H180.119V27H158.992ZM181.466 27V0.581998H189.643V20.34H202.593V27H181.466Z" fill="url(#paint0_linear_34_3913)"/>
<defs>
<linearGradient id="paint0_linear_34_3913" x1="101.5" y1="-25" x2="101.5" y2="50" gradientUnits="userSpaceOnUse">
<stop stop-color="#262626"/>
<stop offset="1" stop-color="#B8C2CE"/>
</linearGradient>
</defs>
</svg>
