<svg width="136" height="67" viewBox="0 0 136 67" fill="none" xmlns="http://www.w3.org/2000/svg">
<path d="M32.2245 7.242H24.2325V27H16.0925V7.242H8.10047V0.581998H32.2245V7.242ZM47.5928 22.042H38.5648L37.1218 27H28.6118L37.6398 0.581998H48.7398L57.7678 27H49.1098L47.5928 22.042ZM45.9278 16.492L43.1158 7.131H42.9678L40.1928 16.492H45.9278ZM58.5919 0.581998H73.2809C78.7939 0.581998 82.0869 3.394 82.0869 7.612C82.0869 10.239 80.5699 11.867 78.6459 12.866V13.014C80.9399 14.05 82.9379 15.937 82.9379 19.008C82.9379 24.114 79.5709 27 73.9099 27H58.5919V0.581998ZM66.7319 11.053H71.3569C73.1329 11.053 74.0579 10.128 74.0579 8.722C74.0579 7.316 73.1329 6.391 71.3569 6.391H66.7319V11.053ZM66.7319 21.043H71.8379C73.6879 21.043 74.6499 20.081 74.6499 18.601C74.6499 17.121 73.6879 16.159 71.8379 16.159H66.7319V21.043ZM84.2823 27V0.581998H92.4593V20.34H105.409V27H84.2823ZM114.934 10.609H126.848V16.455H114.934V20.71H127.588V27H106.757V0.581998H127.588V6.687H114.934V10.609ZM24.2933 46.242H16.3013V66H8.16132V46.242H0.169316V39.582H24.2933V46.242ZM33.7977 49.609H45.7117V55.455H33.7977V59.71H46.4517V66H25.6207V39.582H46.4517V45.687H33.7977V49.609ZM73.1443 66H63.9313L55.6433 50.09H55.4953V66H48.0953V39.582H57.4563L65.5963 55.085H65.7443V39.582H73.1443V66ZM100.099 66H90.8864L82.5984 50.09H82.4504V66H75.0504V39.582H84.4114L92.5514 55.085H92.6994V39.582H100.099V66ZM102.005 66V39.582H110.145V66H102.005ZM134.694 47.278L126.961 47.759C126.813 45.946 125.629 44.725 123.076 44.725C121.152 44.725 119.894 45.576 119.894 46.686C119.894 47.796 121.041 48.203 122.669 48.61L126.702 49.646C130.883 50.719 135.619 51.866 135.619 58.267C135.619 64.261 130.106 66.592 123.742 66.592C117.23 66.592 111.68 63.595 111.236 57.749L119.265 56.935C119.413 59.488 121.3 60.709 123.816 60.709C125.74 60.709 127.331 60.006 127.331 58.6C127.331 57.231 126.258 56.787 123.779 56.121L120.375 55.196C116.416 54.123 111.976 52.976 111.976 47.278C111.976 41.617 116.971 38.99 123.446 38.99C129.403 38.99 133.991 41.802 134.694 47.278Z" fill="url(#paint0_linear_34_3920)"/>
<defs>
<linearGradient id="paint0_linear_34_3920" x1="68" y1="-7" x2="68" y2="71" gradientUnits="userSpaceOnUse">
<stop stop-color="#262626"/>
<stop offset="1" stop-color="#B8C2CE"/>
</linearGradient>
</defs>
</svg>
